<mxfile host="app.diagrams.net" agent="Mozilla/5.0 (Windows NT 10.0; Win64; x64) AppleWebKit/537.36 (KHTML, like Gecko) Chrome/130.0.0.0 Safari/537.36" version="24.8.4">
  <diagram name="Page-1" id="JFGR1izvvYyOBQImgE2Q">
    <mxGraphModel dx="1195" dy="650" grid="0" gridSize="10" guides="1" tooltips="1" connect="1" arrows="1" fold="1" page="1" pageScale="1" pageWidth="827" pageHeight="1169" math="0" shadow="0">
      <root>
        <mxCell id="0" />
        <mxCell id="1" parent="0" />
        <mxCell id="7t7anSN3nlvZyKE8pZJM-20" style="edgeStyle=orthogonalEdgeStyle;rounded=0;orthogonalLoop=1;jettySize=auto;html=1;exitX=0.5;exitY=1;exitDx=0;exitDy=0;entryX=0.5;entryY=0;entryDx=0;entryDy=0;" edge="1" parent="1" source="7t7anSN3nlvZyKE8pZJM-1" target="7t7anSN3nlvZyKE8pZJM-7">
          <mxGeometry relative="1" as="geometry">
            <mxPoint x="210" y="230" as="targetPoint" />
          </mxGeometry>
        </mxCell>
        <mxCell id="7t7anSN3nlvZyKE8pZJM-1" value="ROS Noetic BAG" style="rounded=1;whiteSpace=wrap;html=1;" vertex="1" parent="1">
          <mxGeometry x="130" y="100" width="120" height="60" as="geometry" />
        </mxCell>
        <mxCell id="7t7anSN3nlvZyKE8pZJM-19" style="edgeStyle=orthogonalEdgeStyle;rounded=0;orthogonalLoop=1;jettySize=auto;html=1;exitX=0.5;exitY=1;exitDx=0;exitDy=0;entryX=0.5;entryY=0;entryDx=0;entryDy=0;" edge="1" parent="1" source="7t7anSN3nlvZyKE8pZJM-2" target="7t7anSN3nlvZyKE8pZJM-7">
          <mxGeometry relative="1" as="geometry">
            <mxPoint x="210" y="230" as="targetPoint" />
          </mxGeometry>
        </mxCell>
        <mxCell id="7t7anSN3nlvZyKE8pZJM-2" value="ROS Noetic Gazebo simulation" style="rounded=1;whiteSpace=wrap;html=1;" vertex="1" parent="1">
          <mxGeometry x="260" y="100" width="120" height="60" as="geometry" />
        </mxCell>
        <mxCell id="7t7anSN3nlvZyKE8pZJM-17" style="edgeStyle=orthogonalEdgeStyle;rounded=0;orthogonalLoop=1;jettySize=auto;html=1;exitX=0.5;exitY=1;exitDx=0;exitDy=0;entryX=0.5;entryY=0;entryDx=0;entryDy=0;" edge="1" parent="1" source="7t7anSN3nlvZyKE8pZJM-3" target="7t7anSN3nlvZyKE8pZJM-5">
          <mxGeometry relative="1" as="geometry" />
        </mxCell>
        <mxCell id="7t7anSN3nlvZyKE8pZJM-3" value="Python simulator" style="rounded=1;whiteSpace=wrap;html=1;" vertex="1" parent="1">
          <mxGeometry x="530" y="100" width="120" height="60" as="geometry" />
        </mxCell>
        <mxCell id="7t7anSN3nlvZyKE8pZJM-18" style="edgeStyle=orthogonalEdgeStyle;rounded=0;orthogonalLoop=1;jettySize=auto;html=1;exitX=0.5;exitY=1;exitDx=0;exitDy=0;entryX=0.5;entryY=0;entryDx=0;entryDy=0;" edge="1" parent="1" source="7t7anSN3nlvZyKE8pZJM-4" target="7t7anSN3nlvZyKE8pZJM-7">
          <mxGeometry relative="1" as="geometry" />
        </mxCell>
        <mxCell id="7t7anSN3nlvZyKE8pZJM-4" value="Real Robot (ROS Noetic)" style="rounded=1;whiteSpace=wrap;html=1;" vertex="1" parent="1">
          <mxGeometry x="390" y="100" width="120" height="60" as="geometry" />
        </mxCell>
        <mxCell id="7t7anSN3nlvZyKE8pZJM-24" style="edgeStyle=orthogonalEdgeStyle;rounded=0;orthogonalLoop=1;jettySize=auto;html=1;exitX=0.5;exitY=1;exitDx=0;exitDy=0;entryX=0.5;entryY=0;entryDx=0;entryDy=0;" edge="1" parent="1" source="7t7anSN3nlvZyKE8pZJM-5" target="7t7anSN3nlvZyKE8pZJM-23">
          <mxGeometry relative="1" as="geometry" />
        </mxCell>
        <mxCell id="7t7anSN3nlvZyKE8pZJM-5" value="Common ROS2 Messages" style="rounded=1;whiteSpace=wrap;html=1;fillColor=#ffe6cc;strokeColor=#d79b00;arcSize=50;" vertex="1" parent="1">
          <mxGeometry x="510" y="265" width="160" height="30" as="geometry" />
        </mxCell>
        <mxCell id="7t7anSN3nlvZyKE8pZJM-21" style="edgeStyle=orthogonalEdgeStyle;rounded=0;orthogonalLoop=1;jettySize=auto;html=1;exitX=0.5;exitY=1;exitDx=0;exitDy=0;entryX=0.5;entryY=0;entryDx=0;entryDy=0;" edge="1" parent="1" source="7t7anSN3nlvZyKE8pZJM-7" target="7t7anSN3nlvZyKE8pZJM-16">
          <mxGeometry relative="1" as="geometry" />
        </mxCell>
        <mxCell id="7t7anSN3nlvZyKE8pZJM-7" value="Common ROS1 Messages" style="rounded=1;whiteSpace=wrap;html=1;fillColor=#ffe6cc;strokeColor=#d79b00;arcSize=50;" vertex="1" parent="1">
          <mxGeometry x="240" y="200" width="160" height="30" as="geometry" />
        </mxCell>
        <mxCell id="7t7anSN3nlvZyKE8pZJM-22" style="edgeStyle=orthogonalEdgeStyle;rounded=0;orthogonalLoop=1;jettySize=auto;html=1;exitX=1;exitY=0.5;exitDx=0;exitDy=0;entryX=0;entryY=0.5;entryDx=0;entryDy=0;" edge="1" parent="1" source="7t7anSN3nlvZyKE8pZJM-16" target="7t7anSN3nlvZyKE8pZJM-5">
          <mxGeometry relative="1" as="geometry" />
        </mxCell>
        <mxCell id="7t7anSN3nlvZyKE8pZJM-16" value="ROS1 to ROS2 Bridge" style="rounded=1;whiteSpace=wrap;html=1;fillColor=#dae8fc;strokeColor=#6c8ebf;" vertex="1" parent="1">
          <mxGeometry x="260" y="250" width="120" height="60" as="geometry" />
        </mxCell>
        <mxCell id="7t7anSN3nlvZyKE8pZJM-27" style="edgeStyle=orthogonalEdgeStyle;rounded=0;orthogonalLoop=1;jettySize=auto;html=1;exitX=0;exitY=0.5;exitDx=0;exitDy=0;entryX=1;entryY=0.5;entryDx=0;entryDy=0;" edge="1" parent="1" source="7t7anSN3nlvZyKE8pZJM-23" target="7t7anSN3nlvZyKE8pZJM-25">
          <mxGeometry relative="1" as="geometry" />
        </mxCell>
        <mxCell id="7t7anSN3nlvZyKE8pZJM-23" value="Data processing nodes" style="rounded=1;whiteSpace=wrap;html=1;fillColor=#dae8fc;strokeColor=#6c8ebf;" vertex="1" parent="1">
          <mxGeometry x="530" y="350" width="120" height="60" as="geometry" />
        </mxCell>
        <mxCell id="7t7anSN3nlvZyKE8pZJM-29" style="edgeStyle=orthogonalEdgeStyle;rounded=0;orthogonalLoop=1;jettySize=auto;html=1;exitX=0.5;exitY=1;exitDx=0;exitDy=0;entryX=0.5;entryY=0;entryDx=0;entryDy=0;" edge="1" parent="1" source="7t7anSN3nlvZyKE8pZJM-25" target="7t7anSN3nlvZyKE8pZJM-28">
          <mxGeometry relative="1" as="geometry" />
        </mxCell>
        <mxCell id="7t7anSN3nlvZyKE8pZJM-25" value="INTERVAL ROS2 Messages&lt;div&gt;(Raw data)&lt;/div&gt;" style="rounded=1;whiteSpace=wrap;html=1;fillColor=#ffe6cc;strokeColor=#d79b00;arcSize=50;" vertex="1" parent="1">
          <mxGeometry x="240" y="357" width="160" height="45" as="geometry" />
        </mxCell>
        <mxCell id="7t7anSN3nlvZyKE8pZJM-32" style="edgeStyle=orthogonalEdgeStyle;rounded=0;orthogonalLoop=1;jettySize=auto;html=1;exitX=0.5;exitY=1;exitDx=0;exitDy=0;entryX=0.5;entryY=0;entryDx=0;entryDy=0;" edge="1" parent="1" source="7t7anSN3nlvZyKE8pZJM-33" target="7t7anSN3nlvZyKE8pZJM-31">
          <mxGeometry relative="1" as="geometry">
            <mxPoint x="414" y="540" as="sourcePoint" />
            <mxPoint x="514" y="540" as="targetPoint" />
          </mxGeometry>
        </mxCell>
        <mxCell id="7t7anSN3nlvZyKE8pZJM-34" style="edgeStyle=orthogonalEdgeStyle;rounded=0;orthogonalLoop=1;jettySize=auto;html=1;exitX=1;exitY=0.5;exitDx=0;exitDy=0;entryX=0;entryY=0.5;entryDx=0;entryDy=0;" edge="1" parent="1" source="7t7anSN3nlvZyKE8pZJM-28" target="7t7anSN3nlvZyKE8pZJM-33">
          <mxGeometry relative="1" as="geometry" />
        </mxCell>
        <mxCell id="7t7anSN3nlvZyKE8pZJM-28" value="High level algorithm based on Intervals" style="rounded=1;whiteSpace=wrap;html=1;fillColor=#dae8fc;strokeColor=#6c8ebf;" vertex="1" parent="1">
          <mxGeometry x="260" y="440" width="120" height="60" as="geometry" />
        </mxCell>
        <mxCell id="7t7anSN3nlvZyKE8pZJM-31" value="Python visualizer,&lt;div&gt;RVIZ2....&lt;/div&gt;" style="rounded=1;whiteSpace=wrap;html=1;fillColor=#e1d5e7;strokeColor=#9673a6;" vertex="1" parent="1">
          <mxGeometry x="400" y="540" width="120" height="60" as="geometry" />
        </mxCell>
        <mxCell id="7t7anSN3nlvZyKE8pZJM-33" value="INTERVAL ROS2 Messages&lt;div&gt;(Contracted)&lt;/div&gt;" style="rounded=1;whiteSpace=wrap;html=1;fillColor=#ffe6cc;strokeColor=#d79b00;arcSize=50;" vertex="1" parent="1">
          <mxGeometry x="510" y="448" width="160" height="45" as="geometry" />
        </mxCell>
      </root>
    </mxGraphModel>
  </diagram>
</mxfile>
